<?xml version="1.0" encoding="UTF-8" standalone="no"?>
<svg
   xmlns="http://www.w3.org/2000/svg"
   viewBox="0 0 774.00001 875.7"
   width="774"
   height="875.70001">
  <path
     d="M 387,0 774,218.9 V 656.8 L 387,875.7 0,656.8 V 218.9 Z"
     id="path2"
     style="fill:#ffffff" />
  <path
     d="M 704.9,641.7 399.8,814.3 V 679.9 L 589.9,575.3 Z m 20.9,-18.9 V 261.9 l -111.6,64.5 v 232 z M 67.9,641.7 373,814.3 V 679.9 L 182.8,575.3 Z M 47,622.8 V 261.9 l 111.6,64.5 v 232 z M 60.1,238.5 373,61.5 v 129.9 l -200.5,110.3 -1.6,0.9 z m 652.6,0 -312.9,-177 v 129.9 l 200.5,110.2 1.6,0.9 z"
     id="path4"
     style="fill:#515151" />
  <path
     d="M 373,649.3 185.4,546.1 V 341.8 L 373,450.1 Z m 26.8,0 187.6,-103.1 V 341.8 L 399.8,450.1 Z M 198.1,318.2 386.4,214.7 574.7,318.2 386.4,426.9 Z"
     id="path6"
     style="fill:#000000" />
</svg>
